{"title":"Mirza Juuliet 2017 Hindi 720p DTH-Rip x264 AAC { TaRa }","magnet":"magnet:?xt=urn:btih:bceb002f72133f0fb387f43612e37951940c4331&dn=Mirza+Juuliet+2017+Hindi+720p+DTH-Rip+x264+AAC+%7B+TaRa+%7D&tr=udp%3A%2F%2Ftracker.leechers-paradise.org%3A6969&tr=udp%3A%2F%2Fzer0day.ch%3A1337&tr=udp%3A%2F%2Fopen.demonii.com%3A1337&tr=udp%3A%2F%2Ftracker.coppersurfer.tk%3A6969&tr=udp%3A%2F%2Fexodus.desync.com%3A6969","uploader":"SkTaRa","categoryP":"video","categoryS":"hd___movies","size":"1146149200","seeders":"0","leechers":"0","description":"===================================================================\r\nGeneral\r\nComplete name               :  Mirza Juuliet 2017 Hindi 720p DTH-Rip x264 AAC { TaRa }.mkv\r\nFormat                      : Matroska\r\nFormat version              : Version 4 / Version 2\r\nFile size                   : 1.07 GiB\r\nDuration                    : 1h 55mn\r\nOverall bit rate            : 1 327 Kbps\r\n===================================================================\r\nVideo\r\nID                          : 1\r\nFormat                      : AVC\r\nFormat/Info                 : Advanced Video Codec\r\nFormat profile              : <a class=\"__cf_email__\" href=\"/cdn-cgi/l/email-protection\" data-cfemail=\"cc84a5aba48c80f8e2fd\">[email&#xA0;protected]</a><script data-cfhash=\"f9e31\" type=\"text/javascript\">/* <![CDATA[ */!function(t,e,r,n,c,a,p){try{t=document.currentScript||function(){for(t=document.getElementsByTagName('script'),e=t.length;e--;)if(t[e].getAttribute('data-cfhash'))return t[e]}();if(t&&(c=t.previousSibling)){p=t.parentNode;if(a=c.getAttribute('data-cfemail')){for(e='',r='0x'+a.substr(0,2)|0,n=2;a.length-n;n+=2)e+='%'+('0'+('0x'+a.substr(n,2)^r).toString(16)).slice(-2);p.replaceChild(document.createTextNode(decodeURIComponent(e)),c)}p.removeChild(t)}}catch(u){}}()/* ]]> */</script>\r\nFormat settings, CABAC      : Yes\r\nFormat settings, ReFrames   : 8 frames\r\nCodec ID                    : V_MPEG4/ISO/AVC\r\nDuration                    : 1h 55mn\r\nBit rate                    : 1 200 Kbps\r\nWidth                       : 1 280 pixels\r\nHeight                      : 528 pixels\r\nDisplay aspect ratio        : 2.40:1\r\nFrame rate mode             : Constant\r\nFrame rate                  : 25.000 fps\r\nColor space                 : YUV\r\nChroma subsampling          : 4:2:0\r\nBit depth                   : 8 bits\r\nScan type                   : Progressive\r\nBits/(Pixel*Frame)          : 0.071\r\nStream size                 : 988 MiB (90%)\r\nTitle                       : .....::::: TaRa :::::.....\r\nLanguage                    : Hindi\r\nDefault                     : Yes\r\nForced                      : No\r\n===================================================================\r\nAudio\r\nID                          : 2\r\nFormat                      : AAC\r\nFormat/Info                 : Advanced Audio Codec\r\nFormat profile              : LC\r\nCodec ID                    : A_AAC\r\nDuration                    : 1h 55mn\r\nBit rate                    : 126 Kbps\r\nChannel(s)                  : 2 channels\r\nChannel positions           : Front: L R\r\nSampling rate               : 44.1 KHz\r\nFrame rate                  : 43.066 fps (1024 spf)\r\nCompression mode            : Lossy\r\nStream size                 : 103 MiB (9%)\r\nTitle                       : .....::::: TaRa :::::.....\r\nLanguage                    : Hindi\r\nDefault                     : Yes\r\nForced                      : No\r\n=================================================================== <a href=\"\nhttps://www.jiopic.com/image/Yf143\" rel=\"nofollow\" target=\"_NEW\">\nhttps://www.jiopic.com/image/Yf143</a> <a href=\"\nhttps://www.jiopic.com/image/Yf3Y6\" rel=\"nofollow\" target=\"_NEW\">\nhttps://www.jiopic.com/image/Yf3Y6</a> <a href=\"\nhttps://www.jiopic.com/image/YfxVo\" rel=\"nofollow\" target=\"_NEW\">\nhttps://www.jiopic.com/image/YfxVo</a> <a href=\"\nhttps://www.jiopic.com/image/YfcKR\" rel=\"nofollow\" target=\"_NEW\">\nhttps://www.jiopic.com/image/YfcKR</a> <a href=\"\nhttps://www.jiopic.com/image/YfjnL\" rel=\"nofollow\" target=\"_NEW\">\nhttps://www.jiopic.com/image/YfjnL</a> <a href=\"\nhttps://www.jiopic.com/image/YfS3r\" rel=\"nofollow\" target=\"_NEW\">\nhttps://www.jiopic.com/image/YfS3r</a> <a href=\"\nhttps://www.jiopic.com/image/Yf8FI\" rel=\"nofollow\" target=\"_NEW\">\nhttps://www.jiopic.com/image/Yf8FI</a> <a href=\"\nhttps://www.jiopic.com/image/YfzRS\" rel=\"nofollow\" target=\"_NEW\">\nhttps://www.jiopic.com/image/YfzRS</a> <a href=\"\nhttps://www.jiopic.com/image/Yf56e\" rel=\"nofollow\" target=\"_NEW\">\nhttps://www.jiopic.com/image/Yf56e</a> <a href=\"\nhttps://www.jiopic.com/image/YfZ5E\" rel=\"nofollow\" target=\"_NEW\">\nhttps://www.jiopic.com/image/YfZ5E</a> <a href=\"\nhttps://www.jiopic.com/image/Yfqn4\" rel=\"nofollow\" target=\"_NEW\">\nhttps://www.jiopic.com/image/Yfqn4</a> <a href=\"\nhttps://www.jiopic.com/image/Yfgx7\" rel=\"nofollow\" target=\"_NEW\">\nhttps://www.jiopic.com/image/Yfgx7</a> <a href=\"\nhttps://www.jiopic.com/image/YfVki\" rel=\"nofollow\" target=\"_NEW\">\nhttps://www.jiopic.com/image/YfVki</a> <a href=\"\nhttps://www.jiopic.com/image/YfiQ2\" rel=\"nofollow\" target=\"_NEW\">\nhttps://www.jiopic.com/image/YfiQ2</a> <a href=\"\nhttps://www.jiopic.com/image/Yf7VF\" rel=\"nofollow\" target=\"_NEW\">\nhttps://www.jiopic.com/image/Yf7VF</a> <a href=\"\nhttps://www.jiopic.com/image/YfM4t\" rel=\"nofollow\" target=\"_NEW\">\nhttps://www.jiopic.com/image/YfM4t</a> <a href=\"\nhttps://www.jiopic.com/image/YfNaz\" rel=\"nofollow\" target=\"_NEW\">\nhttps://www.jiopic.com/image/YfNaz</a> <a href=\"\nhttps://www.jiopic.com/image/YfE5v\" rel=\"nofollow\" target=\"_NEW\">\nhttps://www.jiopic.com/image/YfE5v</a> <a href=\"\nhttps://www.jiopic.com/image/YfKRD\" rel=\"nofollow\" target=\"_NEW\">\nhttps://www.jiopic.com/image/YfKRD</a> <a href=\"\nhttps://www.jiopic.com/image/YfQl1\" rel=\"nofollow\" target=\"_NEW\">\nhttps://www.jiopic.com/image/YfQl1</a> <a href=\"\nhttps://www.jiopic.com/image/Yfoxf\" rel=\"nofollow\" target=\"_NEW\">\nhttps://www.jiopic.com/image/Yfoxf</a> <a href=\"\nhttps://www.jiopic.com/image/Yf0QQ\" rel=\"nofollow\" target=\"_NEW\">\nhttps://www.jiopic.com/image/Yf0QQ</a> <a href=\"\nhttps://www.jiopic.com/image/YfRkn\" rel=\"nofollow\" target=\"_NEW\">\nhttps://www.jiopic.com/image/YfRkn</a> <a href=\"\nhttps://www.jiopic.com/image/Yfm7N\" rel=\"nofollow\" target=\"_NEW\">\nhttps://www.jiopic.com/image/Yfm7N</a> <a href=\"\nhttps://www.jiopic.com/image/YfDuj\" rel=\"nofollow\" target=\"_NEW\">\nhttps://www.jiopic.com/image/YfDuj</a> <a href=\"\nhttps://www.jiopic.com/image/YftCY\" rel=\"nofollow\" target=\"_NEW\">\nhttps://www.jiopic.com/image/YftCY</a> <a href=\"\nhttps://www.jiopic.com/image/YfHaG\" rel=\"nofollow\" target=\"_NEW\">\nhttps://www.jiopic.com/image/YfHaG</a> <a href=\"\nhttps://www.jiopic.com/image/YfdBA\" rel=\"nofollow\" target=\"_NEW\">\nhttps://www.jiopic.com/image/YfdBA</a>","last_updated":"2017-07-06T12:03:45.870Z","parsed":{"xt":"urn:btih:bceb002f72133f0fb387f43612e37951940c4331","dn":"Mirza Juuliet 2017 Hindi 720p DTH-Rip x264 AAC { TaRa }","tr":["udp://exodus.desync.com:6969","udp://open.demonii.com:1337","udp://tracker.coppersurfer.tk:6969","udp://tracker.leechers-paradise.org:6969","udp://zer0day.ch:1337"],"infoHash":"bceb002f72133f0fb387f43612e37951940c4331","infoHashBuffer":{"type":"Buffer","data":[188,235,0,47,114,19,63,15,179,135,244,54,18,227,121,81,148,12,67,49]},"name":"Mirza Juuliet 2017 Hindi 720p DTH-Rip x264 AAC { TaRa }","announce":["udp://exodus.desync.com:6969","udp://open.demonii.com:1337","udp://tracker.coppersurfer.tk:6969","udp://tracker.leechers-paradise.org:6969","udp://zer0day.ch:1337"],"urlList":[]}}